<svg width="1040" height="280" viewBox="0 0 1040 280" fill="none" xmlns="http://www.w3.org/2000/svg">
  <rect x="2" y="2" width="1036" height="276" rx="28" fill="white"/>
  <rect x="2" y="2" width="1036" height="276" rx="28" stroke="#CBD5E1" stroke-width="4"/>
  <rect x="40" y="42" width="84" height="84" rx="20" fill="#1ECAD3"/>
  <path d="M83 63C79.1 63 75.8 65.8 74.9 69.6H65V74.4H74.9C75.8 78.2 79.1 81 83 81C87.6 81 91.5 77.1 91.5 72.5C91.5 67.9 87.6 63 83 63ZM83 76.2C81 76.2 79.3 74.5 79.3 72.5C79.3 70.5 81 68.8 83 68.8C85 68.8 86.7 70.5 86.7 72.5C86.7 74.5 85 76.2 83 76.2Z" fill="white"/>
  <path d="M96.5 91.1L106 100.6L102.6 104L93.1 94.4L96.5 91.1Z" fill="white"/>
  <text x="152" y="96" fill="#0F172A" font-size="46" font-weight="700" font-family="Arial, Helvetica, sans-serif">SOLUȚIONAREA ONLINE A LITIGIILOR</text>
  <text x="152" y="156" fill="#475569" font-size="34" font-weight="600" font-family="Arial, Helvetica, sans-serif">(ODR)</text>
  <text x="152" y="214" fill="#64748B" font-size="28" font-weight="500" font-family="Arial, Helvetica, sans-serif">Comisia Europeană</text>
</svg>
